<svg width="64" height="27" viewBox="0 0 64 27" fill="none" xmlns="http://www.w3.org/2000/svg">
    <g clip-path="url(#clip0_7764_434)">
        <path
            d="M55.9335 12.8111L55.9057 12.839C56.1009 12.3093 56.4911 12.1142 56.8256 12.1142C57.2995 12.1142 57.7176 12.4766 57.7176 13.0062C57.7176 13.1178 57.7176 13.2571 57.6619 13.4244C56.6862 15.9333 54.6234 17.2155 52.6163 17.4107C51.6964 18.9717 50.1911 20.1147 48.0446 20.1147C44.9782 20.1147 43.6123 17.6895 43.6123 15.0412C43.6123 11.7797 45.6752 8.15576 49.1318 8.15576C49.8844 8.15576 50.5256 8.32309 51.0552 8.54606C52.6163 9.13144 53.6199 11.1664 53.6199 13.3407C53.6199 14.0376 53.5641 14.7345 53.3968 15.4036C54.4283 15.0412 55.4039 14.2049 55.9335 12.8111ZM50.1075 10.4416V10.4138C49.4942 10.4138 49.1318 11.2221 49.1318 12.1978C49.1318 13.6195 49.9123 14.9297 51.1389 15.4036C51.334 14.7903 51.4176 14.0934 51.4176 13.285C51.4176 11.724 50.9437 10.4416 50.1075 10.4416ZM48.0725 18.0797C48.853 18.0797 49.6335 17.7452 50.2468 17.0483C48.4349 16.2399 47.292 14.3443 47.292 12.5323C47.292 11.919 47.4035 11.2779 47.5707 10.7204C46.4557 11.6403 45.8145 13.4523 45.8145 15.0412C45.8145 17.104 46.7902 18.0797 48.0725 18.0797Z"
            fill="white" />
        <path
            d="M44.0427 12.811L44.0148 12.8389C44.21 12.3092 44.5445 12.0863 44.879 12.0863C45.3529 12.0863 45.8267 12.5044 45.8267 13.034C45.8267 13.1734 45.7989 13.2849 45.7431 13.4243C44.656 16.0725 43.0391 19.1668 40.4467 20.9787L40.391 21.5363C40.0843 24.8814 38.3839 26.9999 36.2374 26.9999C34.6205 26.9999 33.6728 25.8849 33.6728 24.5747C33.6728 22.2053 36.098 21.3411 38.356 19.8916C38.4117 19.3061 38.4396 18.6371 38.4674 17.8844C37.3524 19.111 36.1538 19.6128 35.0945 19.6128C32.9759 19.6128 31.2476 17.8844 31.2476 15.2363C31.2476 11.1663 33.9236 8.49023 36.9064 8.49023H36.9343C38.9693 8.49023 41.1436 9.57736 41.1436 11.5287C41.1436 12.1699 40.8648 15.6544 40.6418 18.3584C42.1471 16.9367 43.4015 14.623 44.0427 12.811ZM35.4011 17.6057C36.4325 17.6057 37.8263 16.9646 38.6905 13.8146C38.8298 13.1177 38.9135 12.5044 38.8856 11.7796C38.7184 11.027 38.0772 10.5809 37.1573 10.5809C35.2617 10.5809 33.4498 12.3929 33.4498 15.1526C33.4498 16.8252 34.2303 17.6057 35.4011 17.6057ZM36.4604 24.965H36.4883C37.0736 24.965 37.7148 24.5747 38.1329 22.0659C36.9064 22.7906 35.7635 23.5154 35.7635 24.3796C35.7635 24.742 36.0422 24.965 36.4604 24.965Z"
            fill="white" />
        <path
            d="M31.7365 12.8111L31.7087 12.839C31.9038 12.3093 32.2941 12.1142 32.6286 12.1142C33.1025 12.1142 33.5206 12.4766 33.5206 13.0062C33.5206 13.1178 33.5206 13.2571 33.4649 13.4244C32.4892 15.9333 30.4263 17.2155 28.4193 17.4107C27.4994 18.9717 25.9941 20.1147 23.8476 20.1147C20.7812 20.1147 19.4153 17.6895 19.4153 15.0412C19.4153 11.7797 21.4781 8.15576 24.9348 8.15576C25.6874 8.15576 26.3286 8.32309 26.8582 8.54606C28.4193 9.13144 29.4228 11.1664 29.4228 13.3407C29.4228 14.0376 29.367 14.7345 29.1998 15.4036C30.2313 15.0412 31.2069 14.2049 31.7365 12.8111ZM25.9104 10.4416V10.4138C25.2972 10.4138 24.9348 11.2221 24.9348 12.1978C24.9348 13.6195 25.7153 14.9297 26.9418 15.4036C27.137 14.7903 27.2206 14.0934 27.2206 13.285C27.2206 11.724 26.7467 10.4416 25.9104 10.4416ZM23.8755 18.0797C24.656 18.0797 25.4365 17.7452 26.0498 17.0483C24.2379 16.2399 23.0949 14.3443 23.0949 12.5323C23.0949 11.919 23.2065 11.2779 23.3737 10.7204C22.2587 11.6403 21.6175 13.4523 21.6175 15.0412C21.6175 17.104 22.5932 18.0797 23.8755 18.0797Z"
            fill="white" />
        <path
            d="M20.8322 11.9311C20.4419 11.9311 20.1074 12.1263 19.8843 12.6559C19.1596 14.4958 17.6542 17.6179 16.121 17.6179C15.1556 17.6179 14.4085 17.3996 13.6536 17.179C12.8826 16.9537 12.1035 16.7259 11.0753 16.7259C10.7129 16.7259 10.2112 16.7817 9.73725 16.8653C11.1649 14.9185 11.6983 12.5607 12.2151 8.10396C11.242 8.04201 10.4504 7.86224 9.87349 7.68066C9.25725 13.333 8.55746 15.4882 6.00178 17.6179C5.66726 17.8967 5.5 18.287 5.5 18.6773C5.5 19.2906 6.02966 19.8202 6.6987 19.8202C6.92172 19.8202 7.1726 19.7366 7.42349 19.6251C8.8452 18.9839 9.70937 18.8167 10.7687 18.8167C11.4423 18.8167 12.2484 19.0093 13.1114 19.2155C14.1054 19.4531 15.175 19.7087 16.2047 19.7087C18.4626 19.7087 19.9401 17.5065 21.5848 13.2413C21.6685 13.102 21.6963 12.9347 21.6963 12.7953C21.6963 12.2656 21.2782 11.9311 20.8322 11.9311Z"
            fill="white" />
        <path fill-rule="evenodd" clip-rule="evenodd"
            d="M10.0149 6.52715C10.5197 6.70338 11.3078 6.90855 12.3296 6.96925L12.4969 6.96916C15.647 6.96916 17.7098 5.0178 17.7098 2.67616C17.7098 1.17082 16.539 0 14.8943 0C12.692 0 11.1588 1.50534 10.3783 4.48814C9.40258 3.95848 8.73354 3.01068 8.39902 1.81199C8.23175 1.22657 7.86936 0.864173 7.36757 0.864173C6.75429 0.864173 6.36401 1.33808 6.36401 1.97924C6.36401 3.87486 7.84148 5.68684 10.0159 6.52314L10.0149 6.52715ZM12.6641 4.93417C13.0823 3.01068 13.7513 2.09075 14.6434 2.09075C15.1173 2.09075 15.4239 2.36952 15.4239 2.8713C15.4239 3.79123 14.4482 4.87841 12.6641 4.93417Z"
            fill="white" />
    </g>
    <defs>
        <clipPath id="clip0_7764_434">
            <rect width="52.5" height="27" fill="white" transform="translate(5.5)" />
        </clipPath>
    </defs>
</svg>